<svg xmlns="http://www.w3.org/2000/svg" viewBox="0 0 184 100.59"><defs><style>.a{fill:#003057;}.b{fill:#fff;}</style></defs><path class="a" d="M342,239.29c-24.52,0-47.58-5.2-64.93-14.64S250,202.5,250,189s9.61-26.16,27.07-35.65,40.41-14.64,64.93-14.64,47.58,5.2,64.93,14.64S434,175.5,434,189s-9.61,26.16-27.07,35.65S366.52,239.29,342,239.29Zm0-99.48c-50.11,0-90.88,22.06-90.88,49.19s40.77,49.19,90.88,49.19,90.88-22.06,90.88-49.19S392.11,139.81,342,139.81Z" transform="translate(-250 -138.71)"/><path class="b" d="M342,139.81c-50.11,0-90.88,22.06-90.88,49.19s40.77,49.19,90.88,49.19,90.88-22.06,90.88-49.19S392.11,139.81,342,139.81ZM402.42,222c-16.14,8.82-37.6,13.68-60.42,13.68S297.72,230.8,281.58,222s-25.12-20.62-25.12-33.17,8.92-24.32,25.12-33.17S319.18,142,342,142s44.28,4.86,60.42,13.67,25.12,20.63,25.12,33.17S418.62,213.14,402.42,222Z" transform="translate(-250 -138.71)"/><path class="a" d="M342,235.66c-22.82,0-44.28-4.86-60.42-13.68s-25.12-20.62-25.12-33.17,8.92-24.32,25.12-33.17S319.18,142,342,142s44.28,4.86,60.42,13.67,25.12,20.63,25.12,33.17-8.92,24.33-25.12,33.17S364.82,235.66,342,235.66Z" transform="translate(-250 -138.71)"/><path class="b" d="M274.56,160.68c5.71,1.74,9.95-2.42,11-2.75,4-1,7,2.73,12.08-3.08,1.83-1.71,2.93-3.42,4.4-4.1,2.19,0,5.49-.34,6.59,2.39,1.46,1.71,4.75,1,9.51,2.74a63.91,63.91,0,0,1,7.33,4.78c2.92,1.37,3.1-.81,4.93-1.49,3.66-.35,7.13-4.4,17.4,1.49,5.4,5,5.26-.39,9.87-1.77,3.66-3.07,5.35-6.37,10.84-5,4.39,0,5.65-1.77,8.94-3.83,3.29,0,1.83,2.74,6.22,5.13,2.2,2.05,7.33,1.37,9.52,1.37,3.66,0,8.79,2.05,9.88,3.42.73.89,2.64,0,3.85-1C391.35,148.93,368,142.52,342,142.52,314.55,142.52,290.11,149.65,274.56,160.68Z" transform="translate(-250 -138.71)"/><path class="b" d="M291.16,176.36a4.26,4.26,0,0,0-2.63-1.27c-2,0-2.83,1.66-2.83,5.49,0,2.14.29,3.42.84,4.12a2.56,2.56,0,0,0,1.95.92,4.46,4.46,0,0,0,3-1.34l.26-.22,2,2.58a6.73,6.73,0,0,1-1.53,1.22,7.9,7.9,0,0,1-4.07,1c-4.58,0-7.24-3.13-7.24-8.43,0-3.77,1.46-6.26,3.41-7.57a8,8,0,0,1,4.13-1.21,6.7,6.7,0,0,1,4.84,1.89Z" transform="translate(-250 -138.71)"/><path class="b" d="M303.64,165.21a21,21,0,0,1,.3,4v3.25c0,.51-.07,1.19-.07,1.38a7.36,7.36,0,0,1,4.72-1.76c2.11,0,3.8.89,4.32,2.33a7.47,7.47,0,0,1,.42,3v11.43h-4.26v-11c0-1.63-.45-2.23-1.69-2.23a5.75,5.75,0,0,0-3.44,1.5v11.71h-4.43V170a17.32,17.32,0,0,0-.32-3.73Z" transform="translate(-250 -138.71)"/><path class="b" d="M324.19,172.14a5.19,5.19,0,0,1,.69,2.33,7.06,7.06,0,0,1,2.46-2.08,4,4,0,0,1,1.44-.25,3.35,3.35,0,0,1,1.62.35l-1.2,3.76a2.52,2.52,0,0,0-1.27-.32,3.5,3.5,0,0,0-2.67,1.38v11.55h-4.35V177.94a14.41,14.41,0,0,0-.62-4.78Z" transform="translate(-250 -138.71)"/><path class="b" d="M340,172.14v16.72h-4.35V172.8Zm.52-4.31a2.68,2.68,0,1,1-2.63-2.65A2.63,2.63,0,0,1,340.51,167.83Z" transform="translate(-250 -138.71)"/><path class="b" d="M357.71,176a9,9,0,0,0-4.09-1.19c-1.27,0-2.12.64-2.12,1.6s.56,1.28,2.08,1.66l2,.51c2,.51,2.73,1.12,3.31,1.86a4.25,4.25,0,0,1,.92,2.77c0,3.39-2.86,5.68-7.12,5.68A15,15,0,0,1,346,187l1.57-3.13a12.27,12.27,0,0,0,5.52,1.85,2,2,0,0,0,2.21-1.85c0-1.12-.81-1.69-2.56-2l-1.95-.35a5.88,5.88,0,0,1-3.06-1.66,4.85,4.85,0,0,1-.94-2.94c0-3.19,2.56-5.33,6.43-5.33a12.69,12.69,0,0,1,5.95,1.53Z" transform="translate(-250 -138.71)"/><path class="b" d="M373.25,175.09h-2.79v8.2c0,2.08.39,2.62,1.88,2.62a5.94,5.94,0,0,0,1.56-.32l.56,2.55a9.15,9.15,0,0,1-3.55.74c-2.21,0-4-1-4.49-2.4a6.06,6.06,0,0,1-.29-2.52v-8.87h-1.66v-2.94h1.66a26.5,26.5,0,0,1,.17-3.86l4.42-1.09a48.71,48.71,0,0,0-.26,5h3.9Z" transform="translate(-250 -138.71)"/><path class="b" d="M382.49,172.26l2.89,9.55c.29,1,.88,3.38.88,3.38s.33-1.82.52-2.62c.13-.54.39-1.5.65-2.26l2.5-7.79h4.59l-6,16.6c-1.14,3.16-2,4.53-3.19,5.4a8.9,8.9,0,0,1-4,1.49l-1.49-2.81a9.57,9.57,0,0,0,2.69-1.08,5,5,0,0,0,1.24-1.34,9.82,9.82,0,0,0,.94-1.92h-1.1c-.52-1.53-1.4-4.08-1.56-4.59L378,172.77Z" transform="translate(-250 -138.71)"/><path class="b" d="M311.38,198.53a8.92,8.92,0,0,0-4.1-1.18c-1.27,0-2.11.64-2.11,1.59s.55,1.28,2.08,1.67l2,.51c2.05.51,2.73,1.11,3.31,1.85a4.25,4.25,0,0,1,.92,2.78c0,3.38-2.87,5.68-7.13,5.68a15,15,0,0,1-6.73-1.89l1.56-3.12a12.47,12.47,0,0,0,5.53,1.85,2,2,0,0,0,2.21-1.85c0-1.12-.81-1.7-2.57-2l-1.95-.35a5.82,5.82,0,0,1-3.05-1.66,4.85,4.85,0,0,1-.95-2.93c0-3.2,2.57-5.34,6.44-5.34a12.6,12.6,0,0,1,5.95,1.54Z" transform="translate(-250 -138.71)"/><path class="b" d="M324.32,207.11v-8a4,4,0,0,1,2.89-1.24,2,2,0,0,1,2.08,1.37,11.12,11.12,0,0,1,.43,3.6c0,3.74-.85,5.18-3,5.18A4.16,4.16,0,0,1,324.32,207.11Zm-4.49-12a20,20,0,0,1,.26,4.11v18.91l4.2-1.09v-5.11a8,8,0,0,0-.07-1.34,7.14,7.14,0,0,0,3.48.86,6,6,0,0,0,4.46-1.85c1.72-1.82,2.3-3.61,2.3-7.12,0-3.77-1.3-5.87-3.08-7a6.09,6.09,0,0,0-3.29-1A5.58,5.58,0,0,0,324,196a7,7,0,0,0-.3-1.53Z" transform="translate(-250 -138.71)"/><path class="b" d="M347.31,197.6a2.34,2.34,0,0,1,1.88.86c.59.73.88,2.17.88,4.37,0,3.86-.81,5.52-2.7,5.52a2.41,2.41,0,0,1-2.21-1.34,15.3,15.3,0,0,1-.1-7.75A2.36,2.36,0,0,1,347.31,197.6Zm-.07-3.16c-4.49,0-7.48,3.41-7.48,8.55s3,8.46,7.48,8.46a6.88,6.88,0,0,0,5.5-2.26,8.8,8.8,0,0,0,2.08-6.33,8.42,8.42,0,0,0-1.92-6A7,7,0,0,0,347.24,194.44Z" transform="translate(-250 -138.71)"/><path class="b" d="M364.64,194.72a5.14,5.14,0,0,1,.68,2.33,7.15,7.15,0,0,1,2.47-2.07,3.92,3.92,0,0,1,1.43-.26,3.39,3.39,0,0,1,1.63.35l-1.21,3.77a2.52,2.52,0,0,0-1.27-.32,3.5,3.5,0,0,0-2.66,1.37v11.56h-4.36V200.53a14.87,14.87,0,0,0-.61-4.79Z" transform="translate(-250 -138.71)"/><path class="b" d="M383.69,197.63h-2.8v8.21c0,2.07.39,2.61,1.88,2.61a5.54,5.54,0,0,0,1.57-.32l.55,2.56a9.27,9.27,0,0,1-3.54.73c-2.21,0-4-.95-4.49-2.39a5.92,5.92,0,0,1-.29-2.53v-8.87h-1.66v-2.94h1.66a28.22,28.22,0,0,1,.16-3.86l4.42-1.09a48.71,48.71,0,0,0-.26,4.95h3.9Z" transform="translate(-250 -138.71)"/><path class="b" d="M400.85,198.53a8.89,8.89,0,0,0-4.09-1.18c-1.27,0-2.12.64-2.12,1.59s.56,1.28,2.09,1.67l2,.51c2.05.51,2.73,1.11,3.32,1.85a4.25,4.25,0,0,1,.91,2.78c0,3.38-2.86,5.68-7.12,5.68a15,15,0,0,1-6.73-1.89l1.56-3.12a12.39,12.39,0,0,0,5.52,1.85,2,2,0,0,0,2.22-1.85c0-1.12-.82-1.7-2.57-2l-2-.35a5.85,5.85,0,0,1-3.06-1.66,4.9,4.9,0,0,1-.94-2.93c0-3.2,2.57-5.34,6.44-5.34a12.63,12.63,0,0,1,6,1.54Z" transform="translate(-250 -138.71)"/></svg>